<svg width="560" height="128" viewBox="0 0 560 128" fill="none" xmlns="http://www.w3.org/2000/svg" role="img" aria-labelledby="title desc">
  <title id="title">Podologia Clinica Integral Patricia Flores Soto</title>
  <desc id="desc">Logo con icono podologico en verde salvia y texto en la paleta del sitio.</desc>
  <g transform="translate(4 4) scale(0.095)">
    <path d="M 351 333 L 341 337 L 330 351 L 327 362 L 328 382 L 335 399 L 346 411 L 354 415 L 365 416 L 377 410 L 385 397 L 388 382 L 387 367 L 381 352 L 370 339 L 361 334 Z M 697 271 L 657 270 L 631 274 L 595 286 L 563 304 L 542 321 L 519 346 L 504 369 L 486 410 L 457 410 L 424 418 L 398 432 L 378 450 L 366 466 L 357 483 L 349 506 L 346 522 L 345 552 L 353 592 L 363 617 L 384 652 L 401 673 L 418 690 L 439 707 L 464 723 L 499 738 L 499 736 L 462 709 L 431 677 L 409 646 L 389 604 L 381 569 L 381 541 L 390 508 L 398 493 L 407 481 L 420 469 L 435 460 L 454 454 L 476 453 L 477 460 L 474 485 L 476 529 L 483 559 L 495 585 L 503 596 L 517 610 L 541 624 L 560 629 L 586 628 L 611 618 L 624 608 L 634 596 L 642 581 L 647 565 L 649 535 L 646 519 L 637 498 L 626 481 L 605 459 L 570 435 L 530 418 L 532 408 L 540 391 L 558 365 L 575 348 L 588 338 L 621 321 L 658 312 L 681 311 L 699 313 L 731 323 L 760 341 L 782 364 L 792 379 L 802 400 L 812 439 L 812 488 L 802 529 L 781 573 L 742 628 L 701 675 L 548 827 L 522 856 L 488 901 L 465 946 L 456 982 L 455 1012 L 460 1041 L 471 1068 L 489 1092 L 507 1107 L 530 1119 L 556 1126 L 592 1127 L 620 1121 L 646 1109 L 673 1088 L 691 1064 L 698 1050 L 704 1032 L 707 1013 L 707 994 L 704 975 L 697 954 L 685 931 L 665 905 L 653 896 L 674 933 L 682 956 L 685 972 L 686 992 L 683 1013 L 679 1026 L 665 1050 L 650 1065 L 635 1075 L 608 1085 L 592 1087 L 573 1086 L 553 1081 L 531 1069 L 514 1052 L 504 1034 L 499 1016 L 498 997 L 500 980 L 508 955 L 518 935 L 532 913 L 561 876 L 590 844 L 730 703 L 764 664 L 792 628 L 813 596 L 830 564 L 845 524 L 851 497 L 853 479 L 853 447 L 849 419 L 835 376 L 815 342 L 792 316 L 764 295 L 730 279 Z M 520 461 L 526 461 L 539 466 L 566 481 L 585 497 L 601 519 L 606 533 L 607 552 L 600 571 L 589 582 L 575 587 L 565 587 L 555 584 L 545 578 L 531 562 L 522 541 L 518 520 L 517 482 Z M 439 248 L 423 254 L 413 264 L 406 279 L 404 296 L 408 313 L 418 328 L 430 336 L 437 338 L 448 338 L 464 331 L 474 320 L 480 307 L 481 285 L 475 268 L 466 257 L 454 250 Z M 534 185 L 519 192 L 511 201 L 504 219 L 504 236 L 509 251 L 522 266 L 534 271 L 546 271 L 561 264 L 571 252 L 577 235 L 577 221 L 571 204 L 561 192 L 550 186 Z M 640 140 L 624 146 L 612 159 L 606 177 L 606 192 L 610 207 L 616 217 L 623 224 L 632 229 L 645 231 L 660 226 L 672 214 L 679 197 L 680 178 L 674 160 L 664 148 L 654 142 Z M 774 86 L 763 88 L 752 93 L 745 98 L 732 113 L 725 126 L 719 144 L 717 175 L 720 193 L 726 210 L 740 231 L 748 238 L 761 245 L 769 247 L 783 247 L 791 245 L 805 237 L 815 227 L 823 215 L 828 204 L 833 185 L 834 155 L 827 127 L 821 115 L 812 103 L 803 95 L 792 89 Z" fill="#566C5F" fill-rule="evenodd"/>
  </g>
  <text x="132" y="38" fill="#24302D" font-family="Georgia, 'Times New Roman', serif" font-size="26" font-weight="600">Podologia Clinica Integral</text>
  <text x="134" y="74" fill="#566C5F" font-family="Georgia, 'Times New Roman', serif" font-size="33" font-weight="700" font-style="italic">Patricia Flores Soto</text>
  <text x="134" y="102" fill="#68736D" font-family="'Instrument Sans', Arial, sans-serif" font-size="15" font-weight="700" letter-spacing="0.8">ESPECIALIDAD EN ADULTO MAYOR</text>
</svg>
